<?xml version="1.0" encoding="utf-8"?>
<!-- Generator: Adobe Illustrator 23.0.1, SVG Export Plug-In . SVG Version: 6.00 Build 0)  -->
<svg version="1.1" id="Layer_1" xmlns="http://www.w3.org/2000/svg" xmlns:xlink="http://www.w3.org/1999/xlink" x="0px" y="0px"
	 viewBox="0 0 800 800" style="enable-background:new 0 0 800 800;" xml:space="preserve">
<style type="text/css">
	.st0{fill:#B6CF54;}
</style>
<path class="st0" d="M400,67C216.09,67,67,216.09,67,400s149.09,333,333,333s333-149.09,333-333S583.91,67,400,67z M400,695.09
	c-162.97,0-295.09-132.12-295.09-295.09c0-93.51,43.5-176.86,111.36-230.91l322.16,491.58C497.15,682.64,450.02,695.09,400,695.09z
	 M577.6,635.68L254.77,143.07c42.88-24.29,92.44-38.16,145.23-38.16c162.97,0,295.09,132.12,295.09,295.09
	C695.09,496.29,648.96,581.82,577.6,635.68z"/>
<path class="st0" d="M213.92,445.14c4.9-11.06,62.74,3.37,111.41,22.45c-2.03-3.19-4.03-6.49-6.09-9.97
	c-38.73-65.42-77.57-160.47-61.61-169.94c13.67-8.09,63.03,49.14,101.29,106.84c1.49-91.61,19.26-205.88,41.09-205.88
	c21.8,0,39.64,114.27,41.09,205.88c38.26-57.7,87.62-114.92,101.25-106.84c15.96,9.47-22.85,104.48-61.61,169.94
	c-2.07,3.48-4.06,6.82-6.06,9.97c48.67-19.04,106.55-33.51,111.41-22.45c5.44,12.44-58.21,52.4-109.3,74.82
	c-4.75,2.07-9.21,3.88-13.45,5.55c26.36,9.32,52,22.12,50.26,28.21c-2.18,7.58-45.59,2.07-76.7-6.75
	c-10.08-2.83-18.17-5.66-23.32-8.41v50.99c0,7.65-6.49,13.82-14.14,13.82c-7.65,0-14.18-6.17-14.18-13.82v-50.99
	c-5.19,2.76-12.69,5.58-22.74,8.41c-31.08,8.78-74.2,14.32-76.34,6.75c-1.7-6.09,24.08-18.89,50.37-28.21
	c-4.21-1.63-8.63-3.52-13.38-5.55C272.16,497.58,208.48,457.58,213.92,445.14z"/>
</svg>
