<?xml version="1.0" encoding="iso-8859-1"?>
<!-- Uploaded to: SVG Repo, www.svgrepo.com, Generator: SVG Repo Mixer Tools -->
<!DOCTYPE svg PUBLIC "-//W3C//DTD SVG 1.1//EN" "http://www.w3.org/Graphics/SVG/1.1/DTD/svg11.dtd">
<svg fill="#000000" version="1.1" id="Capa_1" xmlns="http://www.w3.org/2000/svg" xmlns:xlink="http://www.w3.org/1999/xlink" 
	 width="800px" height="800px" viewBox="0 0 44.402 44.402"
	 xml:space="preserve">
<g>
	<path d="M38.923,7.914H5.487C2.451,7.914,0,10.382,0,13.418v17.566c0,3.037,2.451,5.504,5.487,5.504h33.436
		c3.036,0,5.479-2.467,5.479-5.504V13.418C44.402,10.381,41.958,7.914,38.923,7.914z M29.16,20.994
		c0.135-0.305,1.73,0.093,3.072,0.619c-0.056-0.088-0.111-0.179-0.168-0.275c-1.068-1.804-2.139-4.425-1.699-4.686
		c0.377-0.223,1.738,1.355,2.793,2.946c0.041-2.526,0.531-5.677,1.133-5.677c0.601,0,1.093,3.151,1.133,5.677
		c1.055-1.591,2.416-3.169,2.792-2.946c0.44,0.261-0.63,2.881-1.699,4.686c-0.057,0.096-0.112,0.188-0.167,0.275
		c1.342-0.525,2.938-0.924,3.072-0.619c0.15,0.343-1.605,1.445-3.014,2.063c-0.131,0.057-0.254,0.107-0.371,0.153
		c0.727,0.257,1.434,0.61,1.386,0.778c-0.06,0.209-1.257,0.057-2.115-0.186c-0.278-0.078-0.501-0.156-0.643-0.232v1.406
		c0,0.211-0.179,0.381-0.39,0.381s-0.391-0.17-0.391-0.381V23.57c-0.143,0.076-0.35,0.154-0.627,0.232
		c-0.857,0.242-2.046,0.395-2.105,0.186c-0.047-0.168,0.664-0.521,1.389-0.778c-0.116-0.045-0.238-0.097-0.369-0.153
		C30.766,22.44,29.01,21.337,29.16,20.994z M18.093,16.618c0-0.839,0.695-1.516,1.535-1.516h5.153c0.84,0,1.526,0.677,1.526,1.516
		v0.031c0,0.84-0.688,1.533-1.526,1.533h-5.153c-0.84,0-1.535-0.693-1.535-1.533V16.618z M18.093,22.252
		c0-0.839,0.695-1.52,1.535-1.52h5.153c0.84,0,1.526,0.68,1.526,1.52v0.031c0,0.84-0.688,1.53-1.526,1.53h-5.153
		c-0.84,0-1.535-0.688-1.535-1.53V22.252z M10.291,13.843c2.021,0,3.66,1.639,3.66,3.66s-1.639,3.659-3.66,3.659
		s-3.66-1.638-3.66-3.659C6.632,15.482,8.27,13.843,10.291,13.843z M15.792,28.516c0,1.129-0.909,2.061-2.038,2.061H6.827
		c-1.128,0-2.047-0.932-2.047-2.061v-2.818c0-1.889,1.535-3.407,3.423-3.407h4.175c1.889,0,3.414,1.519,3.414,3.407V28.516z
		 M39.621,27.917c0,0.84-0.668,1.526-1.508,1.526H19.628c-0.84,0-1.535-0.687-1.535-1.526v-0.031c0-0.84,0.695-1.524,1.535-1.524
		h18.485c0.84,0,1.508,0.685,1.508,1.524V27.917z"/>
</g>
</svg>